<svg xmlns="http://www.w3.org/2000/svg" width="1366" height="60" viewBox="0 0 1366 60">
  <g id="Grupo_18215" data-name="Grupo 18215" transform="translate(7850 1890)">
    <path id="Trazado_16342" data-name="Trazado 16342" d="M0,0H1366V60H0Z" transform="translate(-7850 -1890)" fill="#000425"/>
    <g id="Layer_2" data-name="Layer 2" transform="translate(-6594 -1872)">
      <g id="menu">
        <rect id="Rectángulo_1564" data-name="Rectángulo 1564" width="24" height="24" transform="translate(24 24) rotate(180)" fill="#fff" opacity="0"/>
        <rect id="Rectángulo_1565" data-name="Rectángulo 1565" width="18" height="2" rx="0.95" transform="translate(3 11)" fill="#fff"/>
        <rect id="Rectángulo_1566" data-name="Rectángulo 1566" width="18" height="2" rx="0.95" transform="translate(3 16)" fill="#fff"/>
        <rect id="Rectángulo_1567" data-name="Rectángulo 1567" width="18" height="2" rx="0.95" transform="translate(3 6)" fill="#fff"/>
      </g>
    </g>
    <g id="Grupo_17590" data-name="Grupo 17590" transform="translate(-7850 -1890)">
      <path id="Trazado_5404" data-name="Trazado 5404" d="M0-84.2H0v22.53L7.813-54.2H22.145l1.078-1.034-2.185-2.525-.225.225H9.146L3.323-63.092v-17.78H26.636v17.78l-.412.39L28.4-60.177l1.564-1.491V-84.2Zm6.653,6.661h0v12.46l4.416,4.211h7.282l-2.859-3.327.015-.008H12.4L9.984-66.509V-74.2h9.991v4.256l3.33,3.859V-77.538Zm6.661,6.668h0v3.334h1.819L26.636-54.2h3.33v-3.334H28.148l-11.5-13.337Zm0,0" transform="translate(86 98.199)" fill="#fff"/>
      <g id="Grupo_7" data-name="Grupo 7" transform="translate(128 14)">
        <path id="Trazado_2" data-name="Trazado 2" d="M128.023-55.342h-8v3h8Zm1.99-2h0v7h-9.986v5h-1.989v-12Zm0,0" transform="translate(-118.037 57.344)" fill="#fff"/>
        <path id="Trazado_3" data-name="Trazado 3" d="M160.932-55.342h-7.987v3h7.987Zm2-2h0v12h-2v-5h-7.987v5h-2v-12Zm0,0" transform="translate(-135.924 57.344)" fill="#fff"/>
        <path id="Trazado_4" data-name="Trazado 4" d="M195.852-57.344h0v2h-9.986v8h9.986v2H183.877v-12Zm0,0" transform="translate(-153.823 57.344)" fill="#fff"/>
        <path id="Trazado_5" data-name="Trazado 5" d="M218.786-50.348h0v5h-2v-12h2v5h7.987v-5h2v12h-2v-5Zm0,0" transform="translate(-171.71 57.344)" fill="#fff"/>
        <path id="Trazado_6" data-name="Trazado 6" d="M259.7-55.342h-7.987v3H259.7Zm2-2h0v12h-2v-5h-7.987v5h-2v-12Zm0,0" transform="translate(-189.609 57.344)" fill="#fff"/>
        <path id="Trazado_7" data-name="Trazado 7" d="M284.626-44.391h-2v-1.992h2Zm0,0" transform="translate(-207.496 51.386)" fill="#fff"/>
        <path id="Trazado_8" data-name="Trazado 8" d="M303.667-55.342H295.68v8h2.989v-2h2v2h3Zm2-2h0v12h-5v2h-2v-2h-4.988v-12Zm0,0" transform="translate(-213.504 57.344)" fill="#fff"/>
        <path id="Trazado_9" data-name="Trazado 9" d="M328.59-44.391h-2v-1.992h2Zm0,0" transform="translate(-231.392 51.386)" fill="#fff"/>
        <path id="Trazado_10" data-name="Trazado 10" d="M349.63-57.344h0v2h-5v10h-2v-10h-4.988v-2Zm0,0" transform="translate(-237.4 57.344)" fill="#fff"/>
        <path id="Trazado_11" data-name="Trazado 11" d="M382.539-57.344h0v2h-9.986v3h9.986v1.992h-9.986v3h9.986v2H370.554v-12Zm0,0" transform="translate(-255.287 57.344)" fill="#fff"/>
        <path id="Trazado_12" data-name="Trazado 12" d="M403.485-57.344h0v12H415.47v-2h-9.986v-8h9.986v-2Zm0,0" transform="translate(-273.186 57.344)" fill="#fff"/>
      </g>
      <text id="ESCUELA_DE_CODING" data-name="ESCUELA DE CODING" transform="translate(128 43)" fill="#fff" font-size="12" font-family="Poppins-Regular, Poppins" letter-spacing="0.12em"><tspan x="0" y="0">ESCUELA DE CODING</tspan></text>
    </g>
    <g id="Grupo_18179" data-name="Grupo 18179" transform="translate(11)">
      <path id="cart001_-_E0BD" data-name="cart001 - E0BD" d="M-14.567-47.28H-18.15v.932h2.9l3.635,15.736a2.046,2.046,0,0,0-1.331,1.936,1.992,1.992,0,0,0,1.928,2.043,2,2,0,0,0,1.945-2.043,2.135,2.135,0,0,0-.307-1.093h5a2.135,2.135,0,0,0-.307,1.093,2,2,0,0,0,1.945,2.043A1.992,1.992,0,0,0-.813-28.676,1.988,1.988,0,0,0-2.741-30.7h-7.986l-.478-2.1H-.472L2.5-41.724H-13.27Zm15.8,6.488L-1.1-33.73H-11.427l-1.638-7.062ZM-9.959-28.676a1.091,1.091,0,0,1-1.058,1.111,1.077,1.077,0,0,1-1.041-1.111,1.061,1.061,0,0,1,1.041-1.093A1.075,1.075,0,0,1-9.959-28.676Zm8.259,0a1.077,1.077,0,0,1-1.041,1.111A1.091,1.091,0,0,1-3.8-28.676a1.075,1.075,0,0,1,1.058-1.093A1.061,1.061,0,0,1-1.7-28.676Z" transform="translate(-6641.441 -1823.367)" fill="#fff"/>
      <circle id="Elipse_218" data-name="Elipse 218" cx="8.018" cy="8.018" r="8.018" transform="translate(-6648.211 -1875.662)" fill="#5640ff"/>
      <text id="_3" data-name="3" transform="translate(-6640.197 -1864.656)" fill="#fff" font-size="8" font-family="Montserrat-Bold, Montserrat" font-weight="700"><tspan x="-2.368" y="0">3</tspan></text>
    </g>
  </g>
</svg>
